<svg width="920" height="620" viewBox="0 0 920 620" fill="none" xmlns="http://www.w3.org/2000/svg" role="img" aria-labelledby="title desc">
  <title id="title">Compliance operations illustration</title>
  <desc id="desc">Dashboard style image showing policy tracks, campaign health, and evidence export readiness.</desc>
  <defs>
    <linearGradient id="bg" x1="86" y1="48" x2="846" y2="576" gradientUnits="userSpaceOnUse">
      <stop stop-color="#EEF5FF" />
      <stop offset="0.58" stop-color="#DCEAFF" />
      <stop offset="1" stop-color="#F8FBFF" />
    </linearGradient>
    <linearGradient id="card" x1="160" y1="150" x2="760" y2="560" gradientUnits="userSpaceOnUse">
      <stop stop-color="#FFFFFF" />
      <stop offset="1" stop-color="#F5F9FF" />
    </linearGradient>
    <linearGradient id="accent" x1="256" y1="122" x2="676" y2="528" gradientUnits="userSpaceOnUse">
      <stop stop-color="#1F5EFF" />
      <stop offset="1" stop-color="#5AB5FF" />
    </linearGradient>
    <filter id="shadow" x="90" y="68" width="740" height="504" filterUnits="userSpaceOnUse" color-interpolation-filters="sRGB">
      <feFlood flood-opacity="0" result="BackgroundImageFix" />
      <feColorMatrix in="SourceAlpha" type="matrix" values="0 0 0 0 0 0 0 0 0 0 0 0 0 0 0 0 0 0 127 0" result="hardAlpha" />
      <feOffset dy="22" />
      <feGaussianBlur stdDeviation="17" />
      <feColorMatrix type="matrix" values="0 0 0 0 0.08 0 0 0 0 0.19 0 0 0 0 0.39 0 0 0 0.16 0" />
      <feBlend mode="normal" in2="BackgroundImageFix" result="effect1_dropShadow_22_6" />
      <feBlend mode="normal" in="SourceGraphic" in2="effect1_dropShadow_22_6" result="shape" />
    </filter>
  </defs>

  <rect x="22" y="18" width="876" height="584" rx="34" fill="url(#bg)" />
  <circle cx="130" cy="82" r="10" fill="#88B2FF" />
  <circle cx="164" cy="82" r="10" fill="#A6C6FF" />
  <circle cx="198" cy="82" r="10" fill="#C8DAFF" />

  <g filter="url(#shadow)">
    <rect x="124" y="102" width="672" height="436" rx="28" fill="url(#card)" />
  </g>

  <rect x="162" y="138" width="276" height="364" rx="22" fill="#F0F6FF" stroke="#CADCF8" stroke-width="2" />
  <text x="186" y="180" fill="#2C4E88" font-size="20" font-family="'Inter', sans-serif" font-weight="700">Role tracks</text>

  <rect x="186" y="206" width="226" height="72" rx="16" fill="#FFFFFF" stroke="#D4E2F8" />
  <rect x="202" y="224" width="90" height="12" rx="6" fill="#1F5EFF" fill-opacity="0.18" />
  <text x="202" y="258" fill="#1A468B" font-size="15" font-family="'Inter', sans-serif" font-weight="600">Executive lane</text>

  <rect x="186" y="294" width="226" height="72" rx="16" fill="#FFFFFF" stroke="#D4E2F8" />
  <rect x="202" y="312" width="132" height="12" rx="6" fill="#1F5EFF" fill-opacity="0.18" />
  <text x="202" y="346" fill="#1A468B" font-size="15" font-family="'Inter', sans-serif" font-weight="600">Builder controls lab</text>

  <rect x="186" y="382" width="226" height="96" rx="16" fill="#FFFFFF" stroke="#D4E2F8" />
  <text x="202" y="414" fill="#1A468B" font-size="15" font-family="'Inter', sans-serif" font-weight="600">Completion status</text>
  <rect x="202" y="430" width="186" height="14" rx="7" fill="#E5EEFF" />
  <rect x="202" y="430" width="156" height="14" rx="7" fill="url(#accent)" />
  <text x="362" y="443" fill="#1746A3" font-size="12" font-family="'Inter', sans-serif" font-weight="700">84%</text>

  <rect x="466" y="138" width="292" height="188" rx="22" fill="#FFFFFF" stroke="#CADCF8" stroke-width="2" />
  <text x="490" y="178" fill="#2C4E88" font-size="20" font-family="'Inter', sans-serif" font-weight="700">Campaign health</text>

  <path d="M494 262C546 208 586 246 626 212C652 189 704 183 730 208" stroke="url(#accent)" stroke-width="7" stroke-linecap="round" />
  <circle cx="626" cy="212" r="10" fill="#1F5EFF" />
  <circle cx="730" cy="208" r="10" fill="#59B0FF" />

  <rect x="492" y="282" width="120" height="12" rx="6" fill="#E5EEFF" />
  <rect x="492" y="282" width="86" height="12" rx="6" fill="#1F5EFF" fill-opacity="0.24" />
  <rect x="620" y="282" width="120" height="12" rx="6" fill="#E5EEFF" />
  <rect x="620" y="282" width="104" height="12" rx="6" fill="#1F5EFF" fill-opacity="0.24" />

  <rect x="466" y="344" width="292" height="158" rx="22" fill="#0F2E68" />
  <text x="490" y="382" fill="#D7E6FF" font-size="20" font-family="'Inter', sans-serif" font-weight="700">Evidence bundle</text>
  <rect x="492" y="406" width="126" height="66" rx="14" fill="#FFFFFF" fill-opacity="0.12" stroke="#8DB4FF" />
  <rect x="638" y="406" width="94" height="66" rx="14" fill="#FFFFFF" fill-opacity="0.12" stroke="#8DB4FF" />
  <text x="506" y="438" fill="#EEF5FF" font-size="14" font-family="'Inter', sans-serif" font-weight="600">Signed PDF</text>
  <text x="657" y="438" fill="#EEF5FF" font-size="14" font-family="'Inter', sans-serif" font-weight="600">CSV</text>
  <text x="506" y="458" fill="#A9C8FF" font-size="12" font-family="'Inter', sans-serif" font-weight="500">hash verified</text>
  <text x="657" y="458" fill="#A9C8FF" font-size="12" font-family="'Inter', sans-serif" font-weight="500">row complete</text>

  <circle cx="742" cy="142" r="34" fill="#E2EEFF" stroke="#A7C5F6" stroke-width="2" />
  <text x="742" y="148" text-anchor="middle" fill="#1F4EAE" font-size="15" font-family="'Inter', sans-serif" font-weight="700">45m</text>
  <text x="742" y="166" text-anchor="middle" fill="#4A6FA7" font-size="11" font-family="'Inter', sans-serif" font-weight="600">to launch</text>
</svg>
